<svg width="111" height="113" viewBox="0 0 111 113" fill="none" xmlns="http://www.w3.org/2000/svg">
<path d="M60.7413 19.338L64.9933 15.0482C73.343 6.62402 86.9365 6.41551 95.3344 14.7911C98.5164 17.9719 100.631 22.0784 101.381 26.5338C102.131 30.9893 101.479 35.5699 99.5163 39.6323C98.5749 41.5728 98.2578 43.7615 98.6088 45.8928C98.9603 48.024 99.9625 49.9914 101.476 51.52C104.259 48.7059 106.464 45.3662 107.967 41.6917C109.47 38.0173 110.241 34.08 110.236 30.105C110.23 26.13 109.448 22.195 107.935 18.5249C106.422 14.8547 104.206 11.5213 101.416 8.71516C89.6729 -3.06552 70.6121 -2.83109 58.9021 8.98269L18.3737 49.8712L15.0419 46.5097C6.55052 37.9427 6.49639 23.939 15.1375 15.5242C18.3361 12.419 22.4112 10.392 26.8002 9.7229C31.1893 9.0538 35.676 9.77563 39.6411 11.7887C41.4509 12.7244 43.5075 13.0591 45.5172 12.7451C47.5268 12.4311 49.3867 11.4843 50.8312 10.0401L50.9345 9.93642C50.9667 9.90421 50.9921 9.86587 51.0096 9.82362C51.027 9.78142 51.0359 9.73614 51.0359 9.69041C51.0359 9.64468 51.027 9.59939 51.0096 9.55719C50.9921 9.515 50.9667 9.47666 50.9345 9.44439C45.3563 3.95789 37.8813 0.876136 30.091 0.85122C22.3008 0.826309 14.8065 3.86019 9.19398 9.3109C-2.89599 21.0861 -2.85279 40.6671 9.02996 52.6557L49.5463 93.5332L45.2424 97.8755C36.8927 106.3 23.2987 106.508 14.9014 98.1325C11.7193 94.952 9.60469 90.8452 8.85451 86.3899C8.10439 81.9345 8.75632 77.354 10.7188 73.2914C11.6604 71.3508 11.9777 69.1621 11.6265 67.0312C11.2753 64.8998 10.2731 62.9322 8.75987 61.4037C5.97715 64.218 3.77127 67.5574 2.26823 71.2317C0.765184 74.9065 -0.00555486 78.8433 3.01365e-05 82.8188C0.00561515 86.7937 0.787414 90.7288 2.30078 94.3987C3.81415 98.0691 6.02942 101.402 8.82002 104.208C20.5623 115.99 39.6236 115.756 51.3336 103.942L91.9145 62.9984L95.2589 66.3726C103.609 74.7967 103.815 88.5114 95.5137 96.9835C92.3612 100.194 88.2908 102.327 83.8748 103.085C79.4588 103.842 74.9187 103.184 70.892 101.203C68.968 100.253 66.7975 99.9324 64.6844 100.288C62.5712 100.642 60.6205 101.655 59.1055 103.182C61.8949 105.99 65.2049 108.216 68.8467 109.732C72.489 111.249 76.3911 112.026 80.3314 112.021C84.2712 112.015 88.1716 111.226 91.809 109.699C95.447 108.172 98.7509 105.937 101.532 103.122C113.209 91.2749 112.977 72.0437 101.268 60.2299L60.7413 19.338ZM55.5965 87.4264L24.4255 55.9775L54.6889 25.4449L85.86 56.8937L55.5965 87.4264Z" fill="#1781FF"/>
</svg>
