<svg width="84" height="84" viewBox="0 0 84 84" fill="none" xmlns="http://www.w3.org/2000/svg">
<path d="M42 84C65.196 84 84 65.196 84 42C84 18.804 65.196 0 42 0C18.804 0 0 18.804 0 42C0 65.196 18.804 84 42 84Z" fill="white"/>
<path d="M66.0407 45.3255C66.0407 38.9861 61.0442 33.8281 54.9024 33.8281C48.7602 33.8281 43.7637 38.9861 43.7637 45.3255C43.7637 51.6653 48.7607 56.8226 54.9024 56.8226C58.6289 56.8226 62.0919 54.9125 64.1658 51.7124C64.4241 51.3131 64.6592 50.8962 64.8675 50.4665C65.0186 50.1546 64.7891 49.7914 64.4424 49.7911L58.9672 49.7773C58.8464 49.7773 58.7311 49.8265 58.6445 49.911C57.6104 50.9162 56.3432 51.3917 54.9027 51.3917C52.1814 51.3917 49.9006 49.3565 49.3326 46.6435H64.9512C65.553 46.6435 66.0409 46.1555 66.0409 45.5532V45.3253H66.0407V45.3255ZM54.9024 39.2596C56.8949 39.2596 58.6515 40.3521 59.6725 42.0019H50.1316C51.1529 40.3522 52.9093 39.2596 54.9024 39.2596Z" fill="#0053BF"/>
<path d="M59.5295 32.4789H49.65C49.1893 32.4789 48.8154 32.105 48.8154 31.6443V29.1661C48.8154 28.7054 49.1893 28.3315 49.65 28.3315H59.5295C59.9902 28.3315 60.3636 28.7054 60.3636 29.1661V31.6443C60.3638 32.1056 59.9902 32.4789 59.5295 32.4789Z" fill="#0053BF"/>
<path d="M38.3072 39.6325C39.1393 38.3369 39.6147 36.7918 39.587 35.1348C39.5138 30.7008 35.8237 27.1777 31.3893 27.1777H19.0088C18.429 27.1777 17.959 27.6478 17.959 28.2276V55.4541C17.959 56.0339 18.429 56.5039 19.0088 56.5039H32.8386C37.9713 56.5039 42.2235 52.3896 42.2438 47.2569C42.2571 44.1113 40.6966 41.3226 38.3072 39.6325ZM23.3903 32.6092H31.4953C32.9628 32.6092 34.1572 33.8032 34.1572 35.2711C34.1572 36.7386 32.9628 37.9329 31.4953 37.9329H23.3903V32.6092ZM32.9589 51.0725H23.3903V43.3643H32.9589C35.084 43.3643 36.813 45.0939 36.813 47.2185C36.8127 49.3436 35.0842 51.0725 32.9589 51.0725Z" fill="#0053BF"/>
</svg>
