<svg width="87" height="87" viewBox="0 0 87 87" fill="none" xmlns="http://www.w3.org/2000/svg">
<g clip-path="url(#clip0)">
<path d="M70.5176 9.65186C70.7429 9.83078 70.9553 10.0342 71.1787 10.2184L71.1803 10.2124C70.9764 10.0087 70.7723 9.80479 70.5176 9.65186Z" fill="#FF7CB9"/>
<path d="M86.9993 44.4177C86.9483 46.2017 86.7955 47.935 86.5403 49.6681L73.9321 62.6673L61.1373 83.0579C59.557 83.7714 57.8748 84.4341 56.1414 84.944L43.4992 73.0153L40.7467 70.4155L21.0696 80.5599C19.2344 79.4385 17.4502 78.2151 15.819 76.8386L10.9762 53.7464L0.152344 39.4728C0.35608 37.7397 0.610963 36.0573 0.967799 34.3751L19.1833 21.8351L23.0575 5.31865C24.6377 4.45188 26.32 3.6874 28.0024 3.07568L43.4992 7.76553L49.6164 9.65166L71.1794 10.2124C72.6575 11.4358 74.1362 12.7612 75.4106 14.2397L75.2065 32.4891L86.9993 44.4177Z" fill="#FA5E97"/>
<path d="M87 44.4175C86.949 46.2015 86.7963 47.9348 86.541 49.6679L73.9328 62.6671L61.1381 83.0577C59.5578 83.7712 57.8756 84.4339 56.1422 84.9438L43.5 73.0151V7.76514L49.6172 9.65127L71.1801 10.212C72.6583 11.4354 74.1369 12.7608 75.4113 14.2393L75.2073 32.4888L87 44.4175Z" fill="#D94F88"/>
<path d="M29.9386 33.6108C34.1184 32.795 38.1968 31.6737 42.0707 30.4503C36.9224 21.0195 30.5504 12.5064 23.0566 5.31885C12.0459 11.232 3.66838 21.7843 0.966797 34.3753C9.07224 36.0066 19.0806 35.8028 29.9386 33.6108Z" fill="white"/>
<path d="M71.1819 10.2121L70.4682 13.0158C69.3469 17.5018 59.8652 23.9248 47.427 28.5639L46.866 28.7676C45.7957 26.7795 44.674 24.7913 43.5018 22.9051C39.1176 15.6666 33.867 8.9887 28.0049 3.07559C32.7967 1.18945 38.0471 0 43.5016 0C53.2379 0 62.3119 3.43242 69.5506 8.88674C70.1112 9.29456 70.6723 9.70254 71.1819 10.2121Z" fill="white"/>
<path d="M48.8525 45.5896C47.0174 46.2523 45.2334 46.9661 43.5 47.7816C28.7166 54.4087 17.7059 65.4196 15.9725 75.9208C15.9218 76.2267 15.8707 76.5325 15.8197 76.8384C6.28711 68.8859 0 56.9066 0 43.4997C0 42.1232 0.0509766 40.7978 0.1531 39.4724C4.18008 40.2372 8.42813 40.5431 12.4045 40.5431C19.3373 40.5431 25.9131 39.6255 30.9598 38.606C35.2929 37.7395 39.473 36.6179 43.5002 35.3435C43.806 35.2417 44.1119 35.1397 44.4177 35.0376C46.0488 38.453 47.527 41.9704 48.8525 45.5896Z" fill="white"/>
<path d="M56.142 84.9441C52.166 86.1676 47.8839 87.0002 43.5 87.0002C35.2927 87.0002 27.5953 84.5363 21.0701 80.56C20.8152 79.3365 20.8152 78.0621 21.0194 76.7367C22.3445 68.6316 31.5206 59.4558 43.5 53.4406C45.7429 52.3189 48.088 51.2483 50.5347 50.3818C54.0011 61.291 55.9382 72.9645 56.142 84.9441Z" fill="white"/>
<path d="M86.5416 49.6678C84.4008 64.6041 74.4945 77.0932 61.1386 83.0577C60.7816 71.2311 58.7426 59.7104 55.3271 48.8524C66.7459 45.6918 77.5701 46.0487 86.5416 49.6678Z" fill="#FF637B"/>
<path d="M87.0006 43.5001V44.4177C77.2642 40.7982 65.7264 40.6454 53.6959 44.0609C52.3705 40.3907 50.8412 36.8224 49.21 33.356C57.5701 30.1954 73.2201 22.9566 75.4119 14.2397C82.4978 21.9369 87.0006 32.2341 87.0006 43.5001Z" fill="#FF637B"/>
<path d="M50.5348 50.3818C54.0012 61.2908 55.9383 72.9645 56.142 84.9441C52.166 86.1676 47.884 87.0002 43.5 87.0002V53.4406C45.743 52.3189 48.0881 51.2484 50.5348 50.3818Z" fill="white"/>
<path d="M46.8643 28.7678C45.7939 26.7797 44.6723 24.7914 43.5 22.9053V0C53.2364 0 62.3104 3.43242 69.549 8.88674C70.1098 9.29473 70.6707 9.70254 71.1803 10.2121L70.4666 13.0158C69.3453 17.5018 59.8636 23.9248 47.4254 28.5639L46.8643 28.7678Z" fill="white"/>
<path d="M86.5416 49.6678C84.4008 64.6041 74.4945 77.0932 61.1386 83.0577C60.7816 71.2311 58.7426 59.7104 55.3271 48.8524C66.7459 45.6918 77.5701 46.0487 86.5416 49.6678Z" fill="white"/>
<path d="M87.0006 43.5001V44.4177C77.2642 40.7982 65.7264 40.6454 53.6959 44.0609C52.3705 40.3907 50.8412 36.8224 49.21 33.356C57.5701 30.1954 73.2201 22.9566 75.4119 14.2397C82.4978 21.9369 87.0006 32.2341 87.0006 43.5001Z" fill="white"/>
</g>
<defs>
<clipPath id="clip0">
<rect width="87" height="87" fill="white"/>
</clipPath>
</defs>
</svg>
