<svg width="77" height="77" viewBox="0 0 77 77" fill="none" xmlns="http://www.w3.org/2000/svg">
<path d="M77 38.5C77 59.7632 59.7632 77 38.5 77C17.2368 77 0 59.7632 0 38.5C0 17.2368 17.2368 0 38.5 0C59.7632 0 77 17.2368 77 38.5Z" fill="white"/>
<path d="M50.2701 11.3259V20.0439C50.2701 20.0439 40.2609 18.5911 40.2609 25.0485V31.5059H49.3014L48.1717 41.3535H40.2609V67.0221H30.2517V41.3535L21.6953 41.192V31.5059H30.0902V24.0797C30.0902 24.0797 29.5362 13.0325 40.4225 11.0034C44.943 10.1604 50.2701 11.3259 50.2701 11.3259Z" fill="#4A7AFF"/>
<path d="M50.2696 20.0439V11.3259C50.2696 11.3259 44.9425 10.1604 40.4219 11.0034C39.7158 11.135 39.059 11.3053 38.4463 11.5068V67.0221H40.2604V41.3535H48.1706L49.3008 31.5059H40.2604C40.2604 31.5059 40.2604 31.5059 40.2604 25.0485C40.2604 18.5911 50.2696 20.0439 50.2696 20.0439Z" fill="#4A7AFF"/>
</svg>
