<svg width="72" height="72" viewBox="0 0 72 72" fill="none" xmlns="http://www.w3.org/2000/svg">
<g clip-path="url(#clip0)">
<path d="M71.4204 29.3361C71.7405 29.3361 71.9999 29.5955 71.9999 29.9156V36C71.9999 38.2773 71.7884 40.5039 71.3827 42.6639C68.2444 59.4418 53.4633 72.1212 35.7461 71.999C15.8661 71.862 -0.0439245 55.7992 9.11075e-05 35.9189C0.0438255 16.0743 16.1451 0 36 0C45.7274 0 54.5533 3.85903 61.0332 10.1275C61.2672 10.3538 61.2732 10.7267 61.043 10.9568L52.4352 19.5646C52.2136 19.7862 51.8556 19.792 51.6284 19.5758C47.5614 15.7046 42.0588 13.3279 36 13.3279C23.4884 13.3279 13.4133 23.3314 13.3284 35.8426C13.243 48.436 23.4265 58.672 36 58.672C46.2016 58.672 54.8301 51.9327 57.6753 42.6639H36.5795C36.2594 42.6639 36 42.4045 36 42.0844V29.9154C36 29.5954 36.2594 29.3359 36.5795 29.3359H71.4204V29.3361Z" fill="#2196F3"/>
<path d="M71.4191 29.3359H67.073C67.3931 29.3359 67.6526 29.5954 67.6526 29.9155V35.9999C67.6526 38.2772 67.4411 40.5038 67.0354 42.6638C64.0413 58.67 50.4506 70.9459 33.8232 71.9349C34.4594 71.9725 35.0998 71.9944 35.7447 71.9989C53.4621 72.1211 68.243 59.4415 71.3814 42.6638C71.7871 40.5038 71.9986 38.2772 71.9986 35.9999V29.9153C71.9986 29.5954 71.7391 29.3359 71.4191 29.3359Z" fill="#1E88E5"/>
<path d="M15.4069 26.5053L4.47363 18.6055C10.6074 7.51148 22.4272 0 36.0001 0C45.7275 0 54.5534 3.85903 61.0333 10.1275C61.2673 10.3538 61.2733 10.7267 61.0431 10.9568L52.4353 19.5646C52.2141 19.7858 51.8561 19.7927 51.6296 19.577C47.5625 15.705 42.0595 13.328 36.0001 13.328C26.869 13.328 18.9982 18.7258 15.4069 26.5053Z" fill="#F44336"/>
<path d="M12.252 24.2249L15.4083 26.5054C18.6862 19.4047 25.5302 14.2907 33.6428 13.4519C33.7039 13.4453 33.7625 13.4373 33.8247 13.4313C33.1107 13.3636 32.3872 13.3281 31.6554 13.3281C23.4068 13.3281 16.218 17.6767 12.252 24.2249Z" fill="#E53935"/>
<path d="M56.6868 10.1275C56.9207 10.3538 56.9268 10.7267 56.6966 10.9569L49.7099 17.9436C50.3793 18.4527 51.02 18.9972 51.628 19.576C51.855 19.7921 52.2132 19.7864 52.4348 19.5647L61.0426 10.9569C61.2728 10.7267 61.2666 10.3539 61.0328 10.1275C54.5529 3.85903 45.727 0 35.9995 0C35.2695 0 34.5453 0.0243281 33.8262 0.0672188C42.6912 0.595266 50.6929 4.32928 56.6868 10.1275Z" fill="#E53935"/>
<path d="M62.4081 60.4661C55.8339 67.5604 46.4348 72.0006 35.9999 72.0006C21.9056 72.0006 9.70329 63.901 3.79395 52.1013L14.9561 44.4521C18.3056 52.7866 26.4661 58.6726 35.9999 58.6726C41.9829 58.6726 47.4243 56.3546 51.4748 52.5678L62.4081 60.4661Z" fill="#4CAF50"/>
<path d="M14.9575 44.4521L11.666 46.7076C15.4889 53.8294 23.0066 58.6724 31.6552 58.6724C32.3865 58.6724 33.1095 58.6366 33.8232 58.5689C25.2382 57.7505 18.0487 52.1442 14.9575 44.4521Z" fill="#43A047"/>
<path d="M35.9996 72.0003C46.4346 72.0003 55.8337 67.5601 62.4079 60.4658L59.73 58.5312C53.5571 66.2136 44.2969 71.31 33.832 71.9348C34.5492 71.9776 35.2718 72.0003 35.9996 72.0003Z" fill="#43A047"/>
<path d="M13.328 35.9999C13.328 38.9871 13.906 41.8397 14.9563 44.4516L3.79406 52.1007C1.36617 47.2563 0 41.7875 0 35.9999C0 29.6909 1.62253 23.7613 4.47356 18.6055L15.4069 26.5052C14.0726 29.3924 13.328 32.61 13.328 35.9999Z" fill="#FFC107"/>
<path d="M11.6654 46.707L14.9568 44.4516C13.9065 41.8396 13.3286 38.987 13.3286 35.9998C13.3286 32.6099 14.0732 29.3923 15.4074 26.5051L12.2511 24.2246C10.2015 27.6088 9.01193 31.5799 8.98296 35.8426C8.95624 39.7737 9.93035 43.4751 11.6654 46.707Z" fill="#FFB300"/>
</g>
<defs>
<clipPath id="clip0">
<rect width="72" height="72" fill="white"/>
</clipPath>
</defs>
</svg>
